<svg width="24" height="25" viewBox="0 0 24 25" fill="none" xmlns="http://www.w3.org/2000/svg">
<path d="M12.65 15.8489C12.79 15.4848 12.7 15.0701 12.42 14.7869L10.33 12.7034L10.36 12.6731C12.1 10.7109 13.34 8.45545 14.07 6.0685H16.01C16.55 6.0685 17 5.61336 17 5.0672V5.04697C17 4.5008 16.55 4.04566 16.01 4.04566H10V3.03425C10 2.47797 9.55 2.02283 9 2.02283C8.45 2.02283 8 2.47797 8 3.03425V4.04566H1.99C1.45 4.04566 1 4.5008 1 5.04697C1 5.60325 1.45 6.04827 1.99 6.04827H12.17C11.5 8.01043 10.44 9.86132 9 11.4796C8.19 10.5794 7.51 9.59835 6.94 8.56671C6.78 8.2734 6.49 8.09134 6.16 8.09134C5.47 8.09134 5.03 8.8499 5.37 9.45676C6 10.5997 6.77 11.692 7.67 12.7034L3.3 17.0626C2.9 17.4571 2.9 18.1044 3.3 18.4988C3.69 18.8933 4.32 18.8933 4.72 18.4988L9 14.1599L11.02 16.2029C11.53 16.7187 12.4 16.5266 12.65 15.8489ZM17.5 10.1142C16.9 10.1142 16.36 10.4884 16.15 11.0649L12.48 20.9768C12.24 21.5938 12.7 22.2512 13.35 22.2512C13.74 22.2512 14.09 22.0085 14.23 21.6342L15.12 19.2169H19.87L20.77 21.6342C20.91 21.9983 21.26 22.2512 21.65 22.2512C22.3 22.2512 22.76 21.5938 22.53 20.9768L18.86 11.0649C18.64 10.4884 18.1 10.1142 17.5 10.1142ZM15.88 17.1941L17.5 12.8147L19.12 17.1941H15.88Z" fill="url(#paint0_linear_4_95)"/>
<defs>
<linearGradient id="paint0_linear_4_95" x1="11.795" y1="2.02283" x2="11.795" y2="22.2512" gradientUnits="userSpaceOnUse">
<stop stop-color="#B629F8"/>
<stop offset="1" stop-color="#800ADD"/>
</linearGradient>
</defs>
</svg>
