<svg width="81" height="46" viewBox="0 0 81 46" fill="none" xmlns="http://www.w3.org/2000/svg">
<path d="M13.288 31.9601C13.288 34.6161 12.808 36.8081 11.848 38.5361C10.92 40.2641 9.67199 41.6081 8.10398 42.5681C6.56798 43.5601 4.72798 44.4081 2.58398 45.1121L0.471985 39.5441C1.87998 39.0001 2.93598 38.3761 3.63999 37.6721C4.34399 36.9681 4.80799 36.1521 5.03199 35.2241C5.28799 34.2961 5.41599 33.1121 5.41599 31.6721V3.73612H13.288V31.9601Z" fill="black"/>
<path d="M41.4344 23.7521C41.4344 24.8081 41.3864 25.7201 41.2904 26.4881H25.4984C25.7544 28.6321 26.3624 30.1361 27.3224 31.0001C28.2824 31.8641 29.6104 32.2961 31.3064 32.2961C32.3304 32.2961 33.3224 32.1201 34.2824 31.7681C35.2424 31.3841 36.2824 30.8081 37.4024 30.0401L40.5224 34.2641C37.5464 36.6321 34.2344 37.8161 30.5864 37.8161C26.4584 37.8161 23.2904 36.6001 21.0824 34.1681C18.8744 31.7361 17.7704 28.4721 17.7704 24.3761C17.7704 21.7841 18.2344 19.4641 19.1624 17.4161C20.0904 15.3361 21.4504 13.7041 23.2424 12.5201C25.0344 11.3041 27.1784 10.6961 29.6744 10.6961C33.3544 10.6961 36.2344 11.8481 38.3144 14.1521C40.3944 16.4561 41.4344 19.6561 41.4344 23.7521ZM33.9944 21.5921C33.9304 17.6881 32.5544 15.7361 29.8664 15.7361C28.5544 15.7361 27.5304 16.2161 26.7944 17.1761C26.0904 18.1361 25.6584 19.7201 25.4984 21.9281H33.9944V21.5921Z" fill="black"/>
<path d="M57.3587 6.18412C56.2707 6.18412 55.4867 6.44012 55.0067 6.95212C54.5267 7.46412 54.2867 8.32812 54.2867 9.54412V11.5121H60.2867L59.4707 16.7921H54.2867V37.0001H46.7027V16.7921H42.8627V11.5121H46.7027V9.25612C46.7027 6.69612 47.5347 4.61612 49.1987 3.01612C50.8947 1.38412 53.3107 0.568115 56.4467 0.568115C58.9747 0.568115 61.2947 1.11212 63.4067 2.20012L61.3427 7.14412C60.0627 6.50412 58.7347 6.18412 57.3587 6.18412Z" fill="black"/>
<path d="M74.4681 6.18412C73.3801 6.18412 72.5961 6.44012 72.1161 6.95212C71.6361 7.46412 71.3961 8.32812 71.3961 9.54412V11.5121H77.3961L76.5801 16.7921H71.3961V37.0001H63.8121V16.7921H59.9721V11.5121H63.8121V9.25612C63.8121 6.69612 64.6441 4.61612 66.3081 3.01612C68.0041 1.38412 70.4201 0.568115 73.5561 0.568115C76.0841 0.568115 78.4041 1.11212 80.5161 2.20012L78.4521 7.14412C77.1721 6.50412 75.8441 6.18412 74.4681 6.18412Z" fill="black"/>
</svg>
