<svg width="32" height="32" viewBox="0 0 32 32" fill="none" xmlns="http://www.w3.org/2000/svg">
<g clip-path="url(#clip0_6_30)">
<path d="M30.8376 1.5375L24.3376 0.0375006C23.6313 -0.124999 22.9063 0.243751 22.6188 0.90625L19.6188 7.90625C19.3563 8.51875 19.5313 9.2375 20.0501 9.65625L23.8376 12.7562C21.5876 17.55 17.6563 21.5375 12.7626 23.8312L9.66255 20.0437C9.23755 19.525 8.52505 19.35 7.91255 19.6125L0.912541 22.6125C0.243791 22.9062 -0.124959 23.6312 0.0375407 24.3375L1.53754 30.8375C1.69379 31.5125 2.29379 32 3.00004 32C19.0063 32 32.0001 19.0312 32.0001 3C32.0001 2.3 31.5188 1.69375 30.8376 1.5375Z" fill="url(#paint0_linear_6_30)"/>
</g>
<defs>
<linearGradient id="paint0_linear_6_30" x1="15.9997" y1="-0.000675201" x2="15.9997" y2="32" gradientUnits="userSpaceOnUse">
<stop stop-color="#B629F8"/>
<stop offset="1" stop-color="#800ADD"/>
</linearGradient>
<clipPath id="clip0_6_30">
<rect width="32" height="32" fill="white"/>
</clipPath>
</defs>
</svg>
