<svg width="32" height="32" viewBox="0 0 32 32" fill="none" xmlns="http://www.w3.org/2000/svg">
<path d="M27.2071 4.65C24.2143 1.65 20.2286 0 15.9929 0C7.25 0 0.135714 7.11429 0.135714 15.8571C0.135714 18.65 0.864286 21.3786 2.25 23.7857L0 32L8.40714 29.7929C10.7214 31.0571 13.3286 31.7214 15.9857 31.7214H15.9929C24.7286 31.7214 32 24.6071 32 15.8643C32 11.6286 30.2 7.65 27.2071 4.65ZM15.9929 29.05C13.6214 29.05 11.3 28.4143 9.27857 27.2143L8.8 26.9286L3.81429 28.2357L5.14286 23.3714L4.82857 22.8714C3.50714 20.7714 2.81429 18.35 2.81429 15.8571C2.81429 8.59286 8.72857 2.67857 16 2.67857C19.5214 2.67857 22.8286 4.05 25.3143 6.54286C27.8 9.03571 29.3286 12.3429 29.3214 15.8643C29.3214 23.1357 23.2571 29.05 15.9929 29.05ZM23.2214 19.1786C22.8286 18.9786 20.8786 18.0214 20.5143 17.8929C20.15 17.7571 19.8857 17.6929 19.6214 18.0929C19.3571 18.4929 18.6 19.3786 18.3643 19.65C18.1357 19.9143 17.9 19.95 17.5071 19.75C15.1786 18.5857 13.65 17.6714 12.1143 15.0357C11.7071 14.3357 12.5214 14.3857 13.2786 12.8714C13.4071 12.6071 13.3429 12.3786 13.2429 12.1786C13.1429 11.9786 12.35 10.0286 12.0214 9.23571C11.7 8.46429 11.3714 8.57143 11.1286 8.55714C10.9 8.54286 10.6357 8.54286 10.3714 8.54286C10.1071 8.54286 9.67857 8.64286 9.31429 9.03571C8.95 9.43571 7.92857 10.3929 7.92857 12.3429C7.92857 14.2929 9.35 16.1786 9.54286 16.4429C9.74286 16.7071 12.3357 20.7071 16.3143 22.4286C18.8286 23.5143 19.8143 23.6071 21.0714 23.4214C21.8357 23.3071 23.4143 22.4643 23.7429 21.5357C24.0714 20.6071 24.0714 19.8143 23.9714 19.65C23.8786 19.4714 23.6143 19.3714 23.2214 19.1786Z" fill="url(#paint0_linear_40_2)"/>
<defs>
<linearGradient id="paint0_linear_40_2" x1="16" y1="0" x2="16" y2="32" gradientUnits="userSpaceOnUse">
<stop stop-color="#A536FD"/>
<stop offset="1" stop-color="#800ADD"/>
</linearGradient>
</defs>
</svg>
